<svg width="50" height="50" viewBox="0 0 50 50" fill="none" xmlns="http://www.w3.org/2000/svg">
<path d="M22.6264 12.55V37.8921C22.6264 39.4974 21.6974 39.8816 20.5632 38.7474L12.9474 31.1263H7.74215C6.96923 31.1242 6.22853 30.8164 5.68174 30.2701C5.13496 29.7239 4.82651 28.9834 4.82373 28.2105V22.2316C4.82651 21.4586 5.13496 20.7182 5.68174 20.1719C6.22853 19.6256 6.96923 19.3179 7.74215 19.3158H12.9448L20.5632 11.6947C21.6974 10.5631 22.6264 10.9447 22.6264 12.55ZM28.0895 32.2184C28.2812 32.2184 28.4711 32.1805 28.6481 32.1069C28.8251 32.0333 28.9859 31.9254 29.1211 31.7895C30.8631 30.0474 31.8417 27.6846 31.8417 25.221C31.8417 22.7574 30.8631 20.3947 29.1211 18.6526C28.9856 18.5171 28.8248 18.4097 28.6478 18.3364C28.4708 18.2631 28.2811 18.2253 28.0895 18.2253C27.8979 18.2253 27.7082 18.2631 27.5312 18.3364C27.3542 18.4097 27.1934 18.5171 27.0579 18.6526C26.9225 18.7881 26.815 18.9489 26.7417 19.1259C26.6684 19.3029 26.6306 19.4926 26.6306 19.6842C26.6306 19.8758 26.6684 20.0655 26.7417 20.2425C26.815 20.4195 26.9225 20.5803 27.0579 20.7158C28.2531 21.911 28.9245 23.5321 28.9245 25.2224C28.9245 26.9126 28.2531 28.5337 27.0579 29.7289C26.8538 29.9328 26.7147 30.1927 26.6583 30.4757C26.602 30.7587 26.6308 31.052 26.7413 31.3186C26.8518 31.5852 27.0388 31.813 27.2788 31.9731C27.5188 32.1333 27.801 32.2187 28.0895 32.2184ZM33.8369 36.5052C35.32 35.0243 36.4965 33.2656 37.2993 31.3295C38.1021 29.3935 38.5153 27.3182 38.5153 25.2224C38.5153 23.1265 38.1021 21.0512 37.2993 19.1152C36.4965 17.1791 35.32 15.4204 33.8369 13.9395C33.5636 13.6659 33.1929 13.512 32.8062 13.5118C32.4196 13.5115 32.0486 13.6649 31.775 13.9381C31.5015 14.2114 31.3476 14.5821 31.3474 14.9688C31.3471 15.3555 31.5005 15.7264 31.7737 16C32.9848 17.2108 33.9455 18.6484 34.6009 20.2306C35.2563 21.8127 35.5937 23.5085 35.5937 25.221C35.5937 26.9336 35.2563 28.6294 34.6009 30.2115C33.9455 31.7937 32.9848 33.2312 31.7737 34.4421C31.6383 34.5776 31.5308 34.7384 31.4575 34.9154C31.3842 35.0924 31.3464 35.2821 31.3464 35.4737C31.3464 35.6652 31.3842 35.855 31.4575 36.032C31.5308 36.209 31.6383 36.3698 31.7737 36.5052C31.9092 36.6407 32.07 36.7482 32.247 36.8215C32.424 36.8948 32.6137 36.9325 32.8053 36.9325C32.9969 36.9325 33.1866 36.8948 33.3636 36.8215C33.5406 36.7482 33.7014 36.6407 33.8369 36.5052ZM38.5474 41.2158C40.65 39.1162 42.3181 36.6228 43.4562 33.878C44.5943 31.1333 45.1801 28.1911 45.1801 25.2197C45.1801 22.2484 44.5943 19.3062 43.4562 16.5614C42.3181 13.8166 40.65 11.3232 38.5474 9.22367C38.2738 8.95042 37.9029 8.79706 37.5162 8.7973C37.1296 8.79755 36.7588 8.95139 36.4856 9.22498C36.2123 9.49857 36.059 9.86951 36.0592 10.2562C36.0595 10.6428 36.2133 11.0136 36.4869 11.2868C38.319 13.1154 39.7726 15.2874 40.7643 17.6784C41.7561 20.0694 42.2666 22.6325 42.2666 25.221C42.2666 27.8096 41.7561 30.3727 40.7643 32.7637C39.7726 35.1547 38.319 37.3267 36.4869 39.1552C36.3514 39.2907 36.244 39.4515 36.1706 39.6285C36.0973 39.8055 36.0596 39.9952 36.0596 40.1868C36.0596 40.3784 36.0973 40.5681 36.1706 40.7451C36.244 40.9221 36.3514 41.0829 36.4869 41.2184C36.6224 41.3539 36.7832 41.4613 36.9602 41.5346C37.1372 41.608 37.3269 41.6457 37.5185 41.6457C37.71 41.6457 37.8998 41.608 38.0768 41.5346C38.2537 41.4613 38.4146 41.3539 38.55 41.2184L38.5474 41.2158Z" fill="white"/>
</svg>
