<svg width="49" height="49" viewBox="0 0 49 49" fill="none" xmlns="http://www.w3.org/2000/svg">
<path d="M40.9648 12.7749H8.73547" stroke="#FFFFFF" stroke-width="2.84375" stroke-linecap="round"/>
<path d="M37.8046 17.5146L36.9325 30.5942C36.597 35.6274 36.4292 38.1442 34.7893 39.6783C33.1494 41.2126 30.6272 41.2126 25.5828 41.2126H24.1167C19.0722 41.2126 16.55 41.2126 14.91 39.6783C13.2701 38.1442 13.1024 35.6274 12.7668 30.5942L11.8948 17.5146" stroke="#FFFFFF" stroke-width="2.84375" stroke-linecap="round"/>
<path d="M20.1104 22.2542L21.0583 31.7333" stroke="#FFFFFF" stroke-width="2.84375" stroke-linecap="round"/>
<path d="M29.5896 22.2542L28.6417 31.7333" stroke="#FFFFFF" stroke-width="2.84375" stroke-linecap="round"/>
<path d="M14.4229 12.7749C14.5289 12.7749 14.5818 12.7749 14.6298 12.7737C16.1909 12.7341 17.5681 11.7415 18.0994 10.273C18.1157 10.2278 18.1324 10.1776 18.1659 10.0771L18.35 9.52489C18.5071 9.05353 18.5857 8.81784 18.6899 8.61772C19.1056 7.81933 19.8748 7.26493 20.7637 7.12299C20.9865 7.0874 21.235 7.0874 21.7319 7.0874H27.9681C28.465 7.0874 28.7135 7.0874 28.9363 7.12299C29.8252 7.26493 30.5944 7.81933 31.0101 8.61772C31.1144 8.81784 31.1929 9.05353 31.35 9.52489L31.5341 10.0771C31.5675 10.1775 31.5844 10.2279 31.6007 10.273C32.1319 11.7415 33.509 12.7341 35.0702 12.7737C35.1182 12.7749 35.1711 12.7749 35.2771 12.7749" stroke="#FFFFFF" stroke-width="2.84375"/>
</svg>
