<svg width="50" height="50" viewBox="0 0 50 50" fill="none" xmlns="http://www.w3.org/2000/svg">
<path d="M42.8281 14.3454C42.8281 13.9389 42.6637 13.5701 42.3994 13.3034L36.5259 7.42994C36.2592 7.16446 35.8927 7 35.4863 7C35.0798 7 34.7133 7.16446 34.4467 7.42994L9.77932 32.0973C9.60782 32.2688 9.4786 32.4838 9.40812 32.7222L9.40577 32.7328L7.05639 40.9557C7.02114 41.0755 7 41.2141 7 41.3574C7 42.1691 7.65665 42.827 8.46837 42.8281C8.61638 42.8281 8.75969 42.8058 8.89478 42.7659L8.88421 42.7682L16.858 40.4188C17.1 40.3448 17.3079 40.2191 17.4771 40.0535L42.3935 15.385C42.6625 15.1195 42.8281 14.7518 42.8293 14.3442L42.8281 14.3454ZM15.6728 37.7076L10.6134 39.1972L12.1252 33.9063L29.6175 16.414L33.3989 20.1577L15.6728 37.7076ZM35.4863 18.0903L31.6944 14.336L35.4863 10.544L39.2794 14.336L35.4863 18.0903Z" fill="white"/>
</svg>
