<svg width="462" height="76" viewBox="0 0 462 76" fill="none" xmlns="http://www.w3.org/2000/svg">
<g clip-path="url(#clip0_17_2)">
<g clip-path="url(#clip1_17_2)">
<g clip-path="url(#clip2_17_2)">
<g clip-path="url(#clip3_17_2)">
<path d="M319.895 10.3118C319.895 7.77309 318.809 5.71503 317.47 5.71503C316.131 5.71503 315.045 7.77309 315.045 10.3118V65.6547C315.045 68.1935 316.131 70.2515 317.47 70.2515C318.809 70.2515 319.895 68.1935 319.895 65.6547V10.3118Z" fill="white"/>
<g clip-path="url(#clip4_17_2)">
<g clip-path="url(#clip5_17_2)">
<g clip-path="url(#clip6_17_2)">
<g clip-path="url(#clip7_17_2)">
<path d="M18.6047 64.1265H0.901993V13.0351C0.901993 13.0351 0.966728 12.8359 1.0962 12.4376C1.21571 12.0392 1.57425 11.84 2.17181 11.84H20.0986C20.0986 13.4833 20.0737 14.6784 20.0239 15.4254C19.9741 16.1723 19.8745 16.6703 19.7251 16.9193C19.5757 17.1683 19.3268 17.2927 18.9782 17.2927H6.95229V58.6738H19.7998C19.7998 60.3669 19.7749 61.5969 19.7251 62.3637C19.6753 63.1406 19.5757 63.6286 19.4264 63.8277C19.277 64.0269 19.0031 64.1265 18.6047 64.1265ZM17.1108 38.4314H1.72364V32.904H18.2312C18.2312 35.1947 18.1814 36.6886 18.0818 37.3857C17.9823 38.0829 17.6586 38.4314 17.1108 38.4314ZM50.2007 64.1265H45.719L37.1291 43.5854C36.8303 42.7887 36.417 41.6533 35.8891 40.1793C35.3712 38.7153 34.8135 37.062 34.216 35.2196C33.6184 33.3771 33.0059 31.5197 32.3785 29.6473C31.761 27.7849 31.1883 26.057 30.6605 24.4635C30.1426 22.87 29.7343 21.5852 29.4355 20.6092C29.1367 19.6432 28.9873 19.1601 28.9873 19.1601L25.5513 15.4254L25.9995 11.84H30.6306L38.9964 32.0077C39.345 32.8542 39.7783 34.0344 40.2961 35.5482C40.824 37.072 41.3867 38.7402 41.9842 40.5528C42.5818 42.3753 43.1794 44.1929 43.7769 46.0055C44.3745 47.8281 44.9223 49.5112 45.4202 51.0549C45.9182 52.5986 46.3265 53.8286 46.6452 54.7448C46.9739 55.6711 47.1382 56.1342 47.1382 56.1342L50.7983 60.5412L50.2007 64.1265ZM24.7297 64.1265V13.0351C24.7297 12.2384 25.153 11.84 25.9995 11.84L30.78 13.0351L29.9583 21.7745C30.0579 22.4716 30.1426 23.4426 30.2123 24.6876C30.292 25.9325 30.3567 27.3118 30.4065 28.8257C30.4563 30.3494 30.5061 31.933 30.5559 33.5763C30.6057 35.2196 30.6555 36.7882 30.7053 38.2821C30.7551 39.776 30.78 41.0956 30.78 42.2409C30.78 43.3862 30.78 44.2328 30.78 44.7805V62.9314C30.78 63.3298 30.6904 63.6037 30.5111 63.7531C30.3418 63.9024 29.8438 64.002 29.0172 64.0518C28.2005 64.1016 26.7714 64.1265 24.7297 64.1265ZM50.2007 64.1265L45.4202 62.9314L46.0925 52.9223C45.9929 52.1753 45.9182 51.1943 45.8684 49.9793C45.8186 48.7543 45.7688 47.4048 45.719 45.9308C45.6692 44.4668 45.6194 42.9629 45.5696 41.4192C45.5198 39.8755 45.48 38.3916 45.4501 36.9674C45.4302 35.5532 45.4202 34.2983 45.4202 33.2028C45.4202 32.1073 45.4202 31.2607 45.4202 30.6632V13.0351C45.4202 12.6368 45.5049 12.3629 45.6742 12.2135C45.8534 12.0641 46.3664 11.9645 47.2129 11.9147C48.0594 11.8649 49.4786 11.84 51.4705 11.84V62.9314C51.4705 63.7282 51.0472 64.1265 50.2007 64.1265ZM70.9659 64.8735C68.4761 64.8735 66.3348 64.5 64.5421 63.7531C62.7495 63.0061 61.2904 61.7114 60.165 59.8689C59.0496 58.0264 58.2279 55.4221 57.7001 52.0558C57.1822 48.6995 56.9232 44.407 56.9232 39.1784C56.9232 33.3024 57.2967 28.5319 58.0437 24.8668C58.7906 21.2117 59.8612 18.3733 61.2556 16.3516C62.6499 14.3398 64.328 12.9604 66.29 12.2135C68.262 11.4665 70.4928 11.0931 72.9827 11.0931C75.4227 11.0931 77.3498 11.4765 78.7641 12.2434C80.1883 13.0202 80.9003 13.9066 80.9003 14.9025C80.9003 15.5997 80.8256 16.2819 80.6763 16.9492C80.5269 17.6264 80.3526 18.2638 80.1534 18.8613C79.506 18.3136 78.6595 17.8754 77.6138 17.5467C76.568 17.228 75.4227 17.0687 74.1778 17.0687C72.2855 17.0687 70.6522 17.4172 69.2778 18.1144C67.9134 18.8115 66.793 19.9818 65.9165 21.6251C65.0501 23.2684 64.4176 25.4843 64.0193 28.2729C63.6209 31.0615 63.4217 34.5473 63.4217 38.7302C63.4217 43.1621 63.5811 46.7226 63.8998 49.4116C64.2284 52.1006 64.7264 54.1274 65.3937 55.4918C66.0709 56.8662 66.8925 57.7775 67.8586 58.2256C68.8346 58.6738 69.9202 58.8979 71.1153 58.8979C72.0116 58.8979 72.7586 58.7983 73.3562 58.5991C73.9537 58.3999 74.4367 58.1509 74.8052 57.8521C75.1837 57.5534 75.4227 57.3044 75.5223 57.1052V38.5061H69.9949V34.6967C69.9949 33.8501 70.4679 33.4269 71.4141 33.4269H81.1991V61.5122C80.6016 62.0102 79.8397 62.5181 78.9135 63.036C77.9972 63.5638 76.8768 64.002 75.5522 64.3506C74.2375 64.6992 72.7088 64.8735 70.9659 64.8735ZM104.414 64.1265H86.6369V13.558C86.6369 13.0102 86.7365 12.6119 86.9357 12.3629C87.1349 12.1139 87.6578 11.9645 88.5043 11.9147C89.3508 11.8649 90.77 11.84 92.7619 11.84V58.4497H105.609V62.9314C105.609 63.4294 105.5 63.7531 105.281 63.9024C105.052 64.0518 104.763 64.1265 104.414 64.1265ZM110.091 64.1265V14.6037C110.091 13.6576 110.191 12.9953 110.39 12.6168C110.589 12.2483 111.127 12.0243 112.003 11.9446C112.87 11.8749 114.299 11.84 116.291 11.84V62.9314C116.291 63.3298 116.191 63.6037 115.992 63.7531C115.793 63.9024 115.285 64.002 114.468 64.0518C113.642 64.1016 112.183 64.1265 110.091 64.1265ZM131.23 64.8735C127.794 64.8735 125.289 64.3855 123.716 63.4095C122.152 62.4434 121.37 61.4375 121.37 60.3918C121.37 59.7942 121.495 59.0821 121.744 58.2555C121.993 57.4388 122.391 56.7068 122.939 56.0595C123.735 56.8064 124.766 57.4289 126.031 57.9268C127.306 58.4248 128.84 58.6738 130.632 58.6738C133.272 58.6738 135.149 57.9766 136.264 56.5823C137.39 55.188 137.952 53.3455 137.952 51.0549C137.952 49.3618 137.639 47.7932 137.011 46.3491C136.394 44.905 135.263 43.2368 133.62 41.3445L126.151 32.6052C124.458 30.5138 123.247 28.6315 122.52 26.9583C121.803 25.2951 121.445 23.5671 121.445 21.7745C121.445 18.6373 122.55 16.0727 124.761 14.0809C126.982 12.089 130.159 11.0931 134.292 11.0931C137.828 11.0931 140.343 11.4566 141.837 12.1836C143.33 12.9007 144.077 13.7821 144.077 14.8278C144.077 15.3258 143.953 15.8835 143.704 16.501C143.455 17.1284 143.081 17.716 142.583 18.2638C142.086 17.9152 141.174 17.5268 139.85 17.0985C138.535 16.6803 137.006 16.4711 135.263 16.4711C133.023 16.4711 131.24 16.9193 129.915 17.8156C128.601 18.712 127.943 19.9818 127.943 21.6251C127.943 22.9696 128.252 24.1996 128.869 25.315C129.497 26.4404 130.358 27.6754 131.454 29.0199L139.521 38.2074C141.463 40.498 142.783 42.5895 143.48 44.4817C144.177 46.374 144.526 48.4904 144.526 50.8308C144.526 53.3206 144.112 55.6362 143.286 57.7775C142.469 59.9187 141.1 61.6367 139.177 62.9314C137.265 64.2261 134.616 64.8735 131.23 64.8735ZM167.457 64.1265V13.0351C167.457 12.6368 167.542 12.3629 167.711 12.2135C167.89 12.0641 168.388 11.9645 169.205 11.9147C170.031 11.8649 171.466 11.84 173.507 11.84V62.9314C173.507 63.3298 173.433 63.6037 173.283 63.7531C173.134 63.9024 172.636 64.002 171.789 64.0518C170.943 64.1016 169.499 64.1265 167.457 64.1265ZM149.53 64.1265V13.0351C149.53 12.6368 149.605 12.3629 149.754 12.2135C149.904 12.0641 150.402 11.9645 151.248 11.9147C152.095 11.8649 153.539 11.84 155.58 11.84V62.9314C155.58 63.3298 155.506 63.6037 155.356 63.7531C155.207 63.9024 154.709 64.002 153.862 64.0518C153.016 64.1016 151.572 64.1265 149.53 64.1265ZM170.221 38.8049H152.518V33.1281H170.221V38.8049ZM203.221 64.8735C201.777 64.8735 200.432 64.6992 199.187 64.3506C197.942 64.002 196.812 63.3547 195.796 62.4085C194.77 61.4624 193.884 60.0781 193.137 58.2555C192.39 56.4429 191.817 54.0576 191.419 51.0997C191.021 48.1318 190.822 44.4817 190.822 40.1494C190.822 35.0204 191.11 30.7229 191.688 27.2571C192.256 23.8012 193.037 21.0126 194.033 18.8912C195.029 16.7798 196.165 15.1515 197.439 14.0062C198.704 12.8608 200.034 12.089 201.428 11.6906C202.823 11.2923 204.192 11.0931 205.536 11.0931C207.379 11.0931 208.813 11.3022 209.839 11.7205C210.855 12.1488 211.562 12.6766 211.96 13.304C212.359 13.9215 212.558 14.5539 212.558 15.2013C212.558 15.8984 212.458 16.5707 212.259 17.2181C212.06 17.8654 211.836 18.4132 211.587 18.8613C211.338 18.6622 210.979 18.4231 210.511 18.1443C210.033 17.8754 209.47 17.6264 208.823 17.3973C208.176 17.1782 207.479 17.0687 206.732 17.0687C205.785 17.0687 204.854 17.228 203.938 17.5467C203.012 17.8754 202.14 18.4978 201.324 19.4141C200.497 20.3403 199.785 21.65 199.187 23.343C198.59 25.0361 198.107 27.2272 197.738 29.9162C197.36 32.6052 197.171 35.9167 197.171 39.8506C197.171 43.6352 197.36 46.7226 197.738 49.1128C198.107 51.5031 198.615 53.3555 199.262 54.6701C199.909 55.9947 200.696 56.906 201.622 57.404C202.539 57.9019 203.545 58.1509 204.64 58.1509C206.084 58.1509 207.429 57.9019 208.674 57.404C209.919 56.906 210.865 56.3831 211.512 55.8354C211.761 56.3333 211.985 56.906 212.184 57.5534C212.383 58.2007 212.483 58.8481 212.483 59.4954C212.483 60.4416 212.1 61.323 211.333 62.1396C210.556 62.9663 209.47 63.6286 208.076 64.1265C206.682 64.6245 205.063 64.8735 203.221 64.8735ZM218.907 64.2759C218.508 64.2759 217.961 64.251 217.264 64.2012C216.566 64.1514 215.844 64.1016 215.097 64.0518L228.393 12.6617C228.543 11.9645 229.314 11.6159 230.709 11.6159C231.207 11.6159 231.715 11.6408 232.232 11.6906C232.76 11.7404 233.198 11.7902 233.547 11.84L246.917 63.0061C247.017 63.4045 246.903 63.7132 246.574 63.9323C246.255 64.1614 245.498 64.2759 244.303 64.2759C243.855 64.2759 243.342 64.266 242.764 64.246C242.197 64.2162 241.515 64.1763 240.718 64.1265L233.696 34.6967C233.298 33.0036 232.925 31.2856 232.576 29.5427C232.227 27.7999 231.914 26.1167 231.635 24.4933C231.366 22.8799 231.182 21.4757 231.082 20.2806C230.983 21.4757 230.793 22.8799 230.514 24.4933C230.246 26.1167 229.937 27.7999 229.588 29.5427C229.24 31.2856 228.841 33.0036 228.393 34.6967L221.745 63.0808C221.646 63.4792 221.446 63.778 221.148 63.9771C220.849 64.1763 220.102 64.2759 218.907 64.2759ZM240.643 50.8308H222.791V45.3034H240.643V50.8308ZM259.317 42.9131H252.669C251.922 42.9131 251.524 42.7886 251.474 42.5397C251.424 42.2907 251.399 41.8674 251.399 41.2699V13.2592C251.399 13.1098 251.409 12.8359 251.429 12.4376C251.459 12.0392 251.748 11.84 252.296 11.84H259.242C262.379 11.84 264.969 12.3479 267.01 13.3638C269.052 14.3896 270.556 15.9831 271.522 18.1443C272.498 20.3154 272.986 23.1439 272.986 26.6296C272.986 29.717 272.623 32.2915 271.895 34.3531C271.178 36.4246 270.182 38.0829 268.908 39.3278C267.643 40.5727 266.189 41.479 264.545 42.0467C262.902 42.6243 261.159 42.9131 259.317 42.9131ZM250.578 64.1265V13.0351C250.578 13.0351 250.637 12.8359 250.757 12.4376C250.886 12.0392 251.25 11.84 251.847 11.84H255.433C256.03 11.84 256.379 12.0392 256.478 12.4376C256.578 12.8359 256.628 13.0351 256.628 13.0351V62.9314C256.628 63.3298 256.538 63.6037 256.359 63.7531C256.19 63.9024 255.682 64.002 254.835 64.0518C253.989 64.1016 252.569 64.1265 250.578 64.1265ZM270.446 64.2759C269.998 64.2759 269.46 64.266 268.833 64.246C268.216 64.2162 267.558 64.1763 266.861 64.1265C266.612 59.844 266.099 56.2437 265.322 53.3256C264.555 50.4175 263.734 48.102 262.857 46.379C261.991 44.666 261.234 43.436 260.587 42.6891C259.939 41.9421 259.616 41.5686 259.616 41.5686C259.616 41.5686 259.566 41.4192 259.466 41.1205C259.367 40.8217 259.566 40.5229 260.064 40.2241L263.35 38.4314C263.948 38.4314 264.371 38.6555 264.62 39.1037C264.62 39.1037 265.019 39.5519 265.815 40.4482C266.612 41.3445 267.558 42.7488 268.654 44.661C269.749 46.5832 270.77 49.0381 271.716 52.0259C272.662 55.0137 273.26 58.5991 273.509 62.782C273.509 63.3298 273.36 63.7132 273.061 63.9323C272.762 64.1614 271.891 64.2759 270.446 64.2759ZM256.478 17.1434V37.311H259.914C261.309 37.311 262.464 36.9475 263.38 36.2205C264.306 35.5034 265.019 34.3332 265.517 32.7098C266.015 31.0964 266.263 28.9701 266.263 26.3308C266.263 24.4386 266.089 22.7953 265.741 21.401C265.392 20.0067 264.78 18.946 263.903 18.219C263.037 17.5019 261.856 17.1434 260.363 17.1434H256.478ZM287.761 64.1265H278.424V13.2592C278.424 12.811 278.563 12.4625 278.842 12.2135C279.111 11.9645 279.644 11.84 280.441 11.84H287.686C290.126 11.84 292.267 12.2135 294.11 12.9604C295.952 13.7074 297.471 14.9623 298.666 16.7251C299.861 18.4978 300.773 20.903 301.4 23.9406C302.018 26.9782 302.326 30.7628 302.326 35.2943C302.326 40.7719 302.003 45.3631 301.355 49.068C300.708 52.7828 299.752 55.7358 298.487 57.9268C297.212 60.1179 295.678 61.6965 293.886 62.6625C292.093 63.6385 290.051 64.1265 287.761 64.1265ZM284.474 17.4421V58.375H287.835C288.831 58.375 289.777 58.1011 290.674 57.5534C291.57 57.0056 292.382 55.92 293.109 54.2967C293.826 52.6833 294.399 50.3079 294.827 47.1708C295.245 44.0336 295.454 39.8755 295.454 34.6967C295.454 31.2607 295.295 28.4223 294.976 26.1815C294.648 23.9406 294.175 22.1728 293.557 20.8781C292.93 19.5834 292.143 18.6871 291.197 18.1891C290.251 17.6911 289.155 17.4421 287.91 17.4421H284.474Z" fill="white"/>
</g>
</g>
</g>
</g>
<g clip-path="url(#clip8_17_2)">
<g clip-path="url(#clip9_17_2)">
<path d="M444.956 61.3633C445.504 59.6929 444.577 57.4316 443.238 54.3705C441.457 50.302 439.006 44.7245 439.212 38.327C439.647 24.3977 418.584 16.3947 414.873 15.0875C413.864 7.07007 407.09 0.820999 398.793 0.820999C390.499 0.820999 383.719 7.06863 382.712 15.0875C379.007 16.3947 357.943 24.3977 358.377 38.327C358.578 44.7231 356.132 50.302 354.352 54.3705C353.004 57.4316 352.085 59.6915 352.633 61.3633H332.591V75.1455H460.56V61.3633H444.956ZM383.567 46.2983C384.189 46.1009 384.816 45.9957 385.439 45.9957C387.242 45.9957 388.667 46.82 389.079 48.1013C389.653 49.8812 388.111 51.9767 385.642 52.7794L360.969 60.6931C358.536 61.4512 356.009 60.6095 355.457 58.8873C354.884 57.1074 356.426 55.0119 358.895 54.2177L383.567 46.2983ZM373.292 58.9896V61.3633H365.896L373.292 58.9896ZM375.447 58.2949L386.298 54.8187C389.889 53.6557 392.055 50.3495 391.121 47.4441C390.425 45.2635 388.193 43.8526 385.439 43.8526C384.597 43.8526 383.743 43.9938 382.914 44.2604L374.004 47.114C373.82 44.6539 373.337 39.6774 372.206 37.0861C374.881 36.4635 385.097 36.9896 394.638 37.9191L395.173 61.3618H375.447V58.2949ZM441.425 59.1856C440.909 60.9035 438.356 61.8331 435.946 61.1038L411.115 53.709C408.678 52.9797 407.051 50.8756 407.579 49.1043C407.968 47.8029 409.464 46.9252 411.3 46.9252C411.882 46.9252 412.474 47.0088 413.058 47.1847L437.889 54.5867C440.329 55.3145 441.951 57.4143 441.425 59.1856ZM442.956 60.8055C442.952 60.8199 442.956 60.8444 442.952 60.8603C442.942 60.8776 442.911 60.8877 442.907 60.9035C442.921 60.8776 442.939 60.8372 442.956 60.8055ZM418.604 46.5966L413.671 45.1324C410.119 44.0875 406.375 45.6426 405.521 48.4904C404.656 51.429 406.888 54.6818 410.497 55.7555L418.153 58.0369V61.3633H397.382L397.923 37.9206C407.456 36.9896 417.661 36.4649 420.354 37.0832C419.239 39.6125 418.775 44.2604 418.604 46.5966ZM420.304 58.6812L429.302 61.3633H420.304V58.6812ZM398.793 2.97416C406.583 2.97416 412.927 9.30971 412.927 17.1009C412.927 24.8935 406.584 31.2334 398.793 31.2334C391.002 31.2334 384.663 24.8935 384.663 17.1009C384.663 9.30971 391.002 2.97416 398.793 2.97416ZM360.529 38.252C360.166 26.7786 377.524 19.3593 382.549 17.4525C382.732 26.2612 389.934 33.3822 398.793 33.3822C407.655 33.3822 414.851 26.2626 415.038 17.4525C420.064 19.3593 437.422 26.7786 437.059 38.252C436.877 44.2994 438.804 49.456 440.552 53.5245C439.927 53.1253 439.264 52.752 438.506 52.5286L420.721 47.2365C420.897 44.579 421.427 39.3315 422.537 37.5084C422.84 37.0083 422.844 36.4433 422.554 35.9778C421.485 34.2714 412.812 34.2513 396.759 35.8827L396.278 35.9317L395.797 35.8827C379.739 34.2527 371.076 34.2729 370.005 35.9778C369.707 36.4433 369.715 37.0097 370.019 37.5084C371.123 39.3229 371.703 44.9493 371.9 47.7943L358.237 52.1741C357.935 52.275 357.714 52.4638 357.433 52.5863C359.06 48.6662 360.696 43.8396 360.529 38.252ZM458.409 72.9924H334.743V63.5179H458.409V72.9924Z" fill="white"/>
</g>
</g>
</g>
</g>
</g>
</g>
<defs>
<clipPath id="clip0_17_2">
<rect width="462" height="74.382" fill="white" transform="translate(0 0.820999)"/>
</clipPath>
<clipPath id="clip1_17_2">
<rect width="462" height="74.382" fill="white" transform="translate(-0.279991 0.792282)"/>
</clipPath>
<clipPath id="clip2_17_2">
<rect width="459.681" height="74.3245" fill="white" transform="translate(0.879608 0.820999)"/>
</clipPath>
<clipPath id="clip3_17_2">
<rect width="459.681" height="74.3245" fill="white" transform="translate(0.879608 0.820999)"/>
</clipPath>
<clipPath id="clip4_17_2">
<rect width="301.469" height="53.7804" fill="white" transform="translate(0.879601 11.0931)"/>
</clipPath>
<clipPath id="clip5_17_2">
<rect width="301.469" height="53.7804" fill="white" transform="translate(0.879601 11.0931)"/>
</clipPath>
<clipPath id="clip6_17_2">
<rect width="301.469" height="53.7804" fill="white" transform="translate(0.879601 11.0931)"/>
</clipPath>
<clipPath id="clip7_17_2">
<rect width="301.469" height="53.7804" fill="white" transform="translate(0.879601 11.0931)"/>
</clipPath>
<clipPath id="clip8_17_2">
<rect width="127.969" height="74.3245" fill="white" transform="translate(332.591 0.820999)"/>
</clipPath>
<clipPath id="clip9_17_2">
<rect width="127.969" height="74.3245" fill="white" transform="translate(332.591 0.820999)"/>
</clipPath>
</defs>
</svg>
