<svg width="49" height="49" viewBox="0 0 49 49" fill="none" xmlns="http://www.w3.org/2000/svg">
<path d="M40.9648 12.775H8.73547" stroke="white" stroke-width="2.84375" stroke-linecap="round"/>
<path d="M37.8046 17.5145L36.9325 30.5941C36.597 35.6273 36.4292 38.144 34.7893 39.6781C33.1494 41.2124 30.6272 41.2124 25.5828 41.2124H24.1167C19.0722 41.2124 16.55 41.2124 14.91 39.6781C13.2701 38.144 13.1024 35.6273 12.7668 30.5941L11.8948 17.5145" stroke="white" stroke-width="2.84375" stroke-linecap="round"/>
<path d="M20.1104 22.2542L21.0583 31.7333" stroke="white" stroke-width="2.84375" stroke-linecap="round"/>
<path d="M29.5896 22.2542L28.6417 31.7333" stroke="white" stroke-width="2.84375" stroke-linecap="round"/>
<path d="M14.4229 12.775C14.5289 12.775 14.5818 12.775 14.6298 12.7738C16.1909 12.7342 17.5681 11.7416 18.0994 10.2731C18.1157 10.228 18.1324 10.1777 18.1659 10.0772L18.35 9.52502C18.5071 9.05366 18.5857 8.81797 18.6899 8.61784C19.1056 7.81945 19.8748 7.26505 20.7637 7.12311C20.9865 7.08752 21.235 7.08752 21.7319 7.08752H27.9681C28.465 7.08752 28.7135 7.08752 28.9363 7.12311C29.8252 7.26505 30.5944 7.81945 31.0101 8.61784C31.1144 8.81797 31.1929 9.05366 31.35 9.52502L31.5341 10.0772C31.5675 10.1776 31.5844 10.228 31.6007 10.2731C32.1319 11.7416 33.509 12.7342 35.0702 12.7738C35.1182 12.775 35.1711 12.775 35.2771 12.775" stroke="white" stroke-width="2.84375"/>
</svg>
