<svg width="50" height="50" viewBox="0 0 50 50" fill="none" xmlns="http://www.w3.org/2000/svg">
<path d="M48.8281 10.9422C48.8281 10.4016 48.6094 9.91094 48.2578 9.55625L40.4453 1.74375C40.0906 1.39063 39.6031 1.17188 39.0625 1.17188C38.5219 1.17188 38.0344 1.39063 37.6797 1.74375L4.86875 34.5547C4.64062 34.7828 4.46875 35.0687 4.375 35.3859L4.37187 35.4L1.24687 46.3375C1.2 46.4969 1.17188 46.6812 1.17188 46.8719C1.17188 47.9516 2.04531 48.8266 3.125 48.8281C3.32187 48.8281 3.5125 48.7984 3.69219 48.7453L3.67812 48.7484L14.2844 45.6234C14.6062 45.525 14.8828 45.3578 15.1078 45.1375L48.25 12.325C48.6078 11.9719 48.8281 11.4828 48.8297 10.9406L48.8281 10.9422ZM12.7078 42.0172L5.97812 43.9984L7.98906 36.9609L31.2562 13.6938L36.2859 18.6734L12.7078 42.0172ZM39.0625 15.9234L34.0187 10.9297L39.0625 5.88594L44.1078 10.9297L39.0625 15.9234Z" fill="black"/>
<circle cx="33.5" cy="35.5" r="12.2727" fill="white" stroke="black" stroke-width="2.45455"/>
<path d="M26.5455 36.4545L30.8252 40.8182L40.4546 31" stroke="black" stroke-width="2.14773" stroke-linecap="round" stroke-linejoin="round"/>
</svg>
